<svg width="42" height="42" viewBox="0 0 42 42" fill="none" xmlns="http://www.w3.org/2000/svg">
<g clip-path="url(#clip0_2_1923)">
<path fill-rule="evenodd" clip-rule="evenodd" d="M42 8.06398C42 3.61344 38.4646 0.000183105 34.112 0.000183105H7.88795C3.53537 0.000183105 0 3.61344 0 8.06398V33.936C0 38.3853 3.53537 41.9998 7.88799 41.9998H34.112C38.4646 41.9998 42 38.3853 42 33.936L42 8.06398Z" fill="#0C3B7C"/>
<path fill-rule="evenodd" clip-rule="evenodd" d="M42 8.06404C42 3.61351 38.4646 0.000244141 34.112 0.000244141H7.88795C3.53537 0.000244141 0 3.61351 0 8.06404V33.936C0 38.3854 3.53537 41.9999 7.88799 41.9999H34.112C38.4646 41.9999 42 38.3854 42 33.936L42 8.06404Z" fill="#0C3B7C"/>
<path fill-rule="evenodd" clip-rule="evenodd" d="M0.00146484 26.0924H20.9778V41.9997H0.00148022L0.00146484 26.0924Z" fill="#0C3B7C"/>
<path d="M19.0881 27.8002L15.7054 27.7968V23.6609C15.7054 22.7772 16.0406 22.3173 16.7802 22.2122H19.0881C20.7341 22.2122 21.7988 23.2733 21.7988 24.9907C21.7988 26.7546 20.761 27.7985 19.0881 27.8002H19.0881ZM15.7054 16.6449V15.5563C15.7054 14.6037 16.0996 14.1506 16.9638 14.0921H18.6956C20.1798 14.0921 21.0693 14.9999 21.0693 16.5209C21.0693 17.6785 20.4595 19.0307 18.7495 19.0307H15.7054V16.6449ZM23.4076 20.7722L22.7961 20.4208L23.3301 19.954C23.9517 19.4079 24.9929 18.1797 24.9929 16.061C24.9929 12.8157 22.5316 10.7227 18.7226 10.7227H14.3762V10.721H13.8809C12.7521 10.7641 11.8475 11.7029 11.8357 12.8639V31.2781H18.8085C23.042 31.2781 25.7745 28.9216 25.7745 25.2715C25.7745 23.3061 24.8918 21.6266 23.4076 20.7722Z" fill="white"/>
<path d="M27.5906 28.7343C27.5906 27.3276 28.7002 26.1896 30.0673 26.1896C31.4378 26.1896 32.5526 27.3276 32.5526 28.7343C32.5526 30.1392 31.4378 31.279 30.0672 31.279C28.7002 31.279 27.5906 30.1392 27.5906 28.7343" fill="#00BAFC"/>
</g>
<defs>
<clipPath id="clip0_2_1923">
<rect width="42" height="42" fill="white"/>
</clipPath>
</defs>
</svg>
