<svg width="119" height="106" viewBox="0 0 119 106" fill="none" xmlns="http://www.w3.org/2000/svg">
<path d="M98.4974 36.5756L94.5372 25.1288C93.5525 22.2918 91.5845 19.8997 88.9886 18.3845C88.576 18.1381 88.1779 17.8683 87.7962 17.5764H76.9659C77.0875 19.3603 76.8096 21.1488 76.1523 22.8119C75.0461 25.6056 74.9774 28.7023 75.9586 31.5421L79.3506 41.3383L84.3138 43.9432L98.4974 36.5756Z" fill="#FFCE00"/>
<path d="M87.7962 17.5764C85.8965 16.1431 84.4656 14.1788 83.6852 11.9325L80.2803 2.09765C80.0739 1.50517 79.6414 1.01817 79.077 0.742799C78.5125 0.467428 77.862 0.426014 77.2671 0.627582L74.4175 1.61193C73.8241 1.8181 73.3361 2.24979 73.0596 2.81321C72.7832 3.37662 72.7405 4.02623 72.941 4.62085L76.333 14.4557C76.6795 15.4595 76.8923 16.5044 76.9658 17.5635H87.7961L87.7962 17.5764Z" fill="#FFEB99"/>
<path d="M73.1692 6.07372C73.293 6.11009 73.4254 6.10546 73.5464 6.06052C73.6674 6.01559 73.7707 5.93276 73.8407 5.82441C74.022 5.56458 74.2812 5.36892 74.5811 5.26561C74.8816 5.16687 75.206 5.16687 75.5065 5.26561C75.6332 5.30611 75.7696 5.30455 75.8953 5.26115C76.021 5.21776 76.1293 5.13487 76.2039 5.0249C76.3842 4.7657 76.6422 4.5703 76.9408 4.4668C77.2393 4.3633 77.5631 4.35703 77.8654 4.44891C77.9928 4.48972 78.1299 4.48833 78.2563 4.44495C78.3828 4.40156 78.4918 4.31852 78.5671 4.20819C78.7399 3.94632 78.9917 3.74611 79.286 3.6365C79.588 3.53772 79.9137 3.53772 80.2158 3.6365C80.3382 3.67892 80.4712 3.68048 80.5946 3.64095C80.718 3.60141 80.8253 3.52292 80.9002 3.41728C80.9333 3.36933 80.9692 3.32339 81.0078 3.27973C81.0771 3.20297 81.1245 3.10899 81.145 3.00764C81.1654 2.90629 81.1582 2.80132 81.124 2.70373L80.4999 0.889782C80.4432 0.725669 80.3547 0.574322 80.2395 0.444411C80.1242 0.314501 79.9844 0.20858 79.828 0.132715C79.6717 0.0568492 79.5019 0.0125293 79.3283 0.0022955C79.1548 -0.00793834 78.981 0.0161152 78.8168 0.0730762L72.743 2.16643C72.5787 2.22297 72.4271 2.31133 72.297 2.42645C72.1669 2.54158 72.0608 2.6812 71.9849 2.83732C71.9089 2.99344 71.8645 3.163 71.8543 3.33628C71.844 3.50956 71.8681 3.68315 71.9251 3.84712L72.5493 5.66107C72.5826 5.75607 72.6397 5.84104 72.715 5.90797C72.7903 5.97489 72.8814 6.02158 72.9798 6.04364C73.0437 6.04799 73.1071 6.05806 73.1692 6.07372Z" fill="#FFCE00"/>
<path d="M91.1671 28.0275L80.2884 31.7829C79.7222 31.9783 79.4218 32.5951 79.6176 33.1605L85.1616 49.1752C85.3574 49.7406 85.9751 50.0405 86.5413 49.845L97.42 46.0896C97.9862 45.8942 98.2865 45.2774 98.0908 44.712L92.5468 28.6973C92.351 28.1319 91.7333 27.832 91.1671 28.0275Z" fill="#FF7E1D"/>
<path d="M58.8177 23.7232H11.5018C9.03178 23.7232 7.0294 25.7227 7.0294 28.1893V49.0798C7.0294 51.5464 9.03178 53.5459 11.5018 53.5459H58.8177C61.2878 53.5459 63.2902 51.5464 63.2902 49.0798V28.1893C63.2902 25.7227 61.2878 23.7232 58.8177 23.7232Z" fill="#FFFAE6"/>
<path d="M21.4196 25.2105H11.4502C9.81455 25.2105 8.48862 26.5345 8.48862 28.1678V49.2045C8.48862 50.8378 9.81455 52.1618 11.4502 52.1618H21.4196C23.0552 52.1618 24.3811 50.8378 24.3811 49.2045V28.1678C24.3811 26.5345 23.0552 25.2105 21.4196 25.2105Z" fill="#FFCE00"/>
<path d="M58.9555 25.2105H28.9182C27.2826 25.2105 25.9566 26.5345 25.9566 28.1678V49.2045C25.9566 50.8378 27.2826 52.1618 28.9182 52.1618H58.9555C60.5911 52.1618 61.9171 50.8378 61.9171 49.2045V28.1678C61.9171 26.5345 60.5911 25.2105 58.9555 25.2105Z" fill="#FFEB99"/>
<path d="M114.528 53.3439H48.4652C45.9952 53.3439 43.9928 55.3434 43.9928 57.81V88.6385C43.9928 91.1051 45.9952 93.1046 48.4652 93.1046H114.528C116.998 93.1046 119 91.1051 119 88.6385V57.81C119 55.3434 116.998 53.3439 114.528 53.3439Z" fill="#FFFAE6"/>
<path d="M64.164 55.3297H48.8999C47.2643 55.3297 45.9384 56.6538 45.9384 58.2871V88.3032C45.9384 89.9365 47.2643 91.2606 48.8999 91.2606H64.164C65.7996 91.2606 67.1255 89.9365 67.1255 88.3032V58.2871C67.1255 56.6538 65.7996 55.3297 64.164 55.3297Z" fill="#FFCE00"/>
<path d="M114.209 55.3297H72.1878C70.5522 55.3297 69.2262 56.6538 69.2262 58.2871V88.3032C69.2262 89.9365 70.5522 91.2606 72.1878 91.2606H114.209C115.845 91.2606 117.171 89.9365 117.171 88.3032V58.2871C117.171 56.6538 115.845 55.3297 114.209 55.3297Z" fill="#FFEB99"/>
<path d="M3.37481 36.322C2.3573 36.322 1.53245 37.1447 1.53245 38.1596C1.53245 39.1744 2.3573 39.9972 3.37481 39.9972H13.6068C14.6243 39.9972 15.4491 39.1744 15.4491 38.1596C15.4491 37.1447 14.6243 36.322 13.6068 36.322H3.37481Z" fill="#C2EAFF"/>
<path d="M76.5956 63.0283H4.47246C2.00239 63.0283 0 65.0278 0 67.4944V101.534C0 104 2.00239 106 4.47246 106H76.5956C79.0657 106 81.0681 104 81.0681 101.534V67.4944C81.0681 65.0278 79.0657 63.0283 76.5956 63.0283Z" fill="white"/>
<path d="M22.0437 65.1732H5.06641C3.43079 65.1732 2.10486 66.4973 2.10486 68.1306V101.048C2.10486 102.681 3.43079 104.006 5.06641 104.006H22.0437C23.6793 104.006 25.0052 102.681 25.0052 101.048V68.1306C25.0052 66.4973 23.6793 65.1732 22.0437 65.1732Z" fill="#FF7E1D"/>
<path d="M76.1307 65.1732H30.2353C28.5997 65.1732 27.2738 66.4973 27.2738 68.1306V101.048C27.2738 102.681 28.5997 104.006 30.2353 104.006H76.1307C77.7663 104.006 79.0923 102.681 79.0923 101.048V68.1306C79.0923 66.4973 77.7663 65.1732 76.1307 65.1732Z" fill="#FFB985"/>
<path d="M39.9162 85.8593V84.3233H43.5369V85.8593H39.9162Z" fill="#EB6500"/>
<path d="M44.6906 88.0955L44.3452 87.2387L46.48 84.9084C46.5986 84.7761 46.7276 84.6263 46.8672 84.4591C47.0067 84.2919 47.1427 84.1212 47.2753 83.9471C47.4078 83.766 47.5125 83.5918 47.5892 83.4246C47.6729 83.2574 47.7148 83.1041 47.7148 82.9648C47.7148 82.8255 47.6834 82.7036 47.6206 82.5991C47.5578 82.4946 47.4671 82.4145 47.3485 82.3587C47.2299 82.296 47.0799 82.2647 46.8986 82.2647C46.7381 82.2647 46.5846 82.3065 46.4381 82.3901C46.2916 82.4667 46.1521 82.5886 46.0195 82.7558C45.894 82.923 45.7754 83.1285 45.6638 83.3723L44.3452 82.6618C44.4917 82.2577 44.6975 81.9024 44.9626 81.5959C45.2347 81.2824 45.5521 81.0421 45.9149 80.8749C46.2777 80.7007 46.6648 80.6137 47.0764 80.6137C47.509 80.6206 47.8997 80.7147 48.2485 80.8958C48.5973 81.07 48.8728 81.3173 49.0752 81.6377C49.2844 81.9512 49.3891 82.3204 49.3891 82.7454C49.3891 82.8917 49.3716 83.0449 49.3368 83.2052C49.3019 83.3654 49.2496 83.5326 49.1798 83.7067C49.11 83.8739 49.0159 84.0551 48.8973 84.2501C48.7856 84.4382 48.6496 84.6367 48.4891 84.8457C48.3287 85.0547 48.1403 85.2776 47.9241 85.5145L46.2602 87.3223L46.0509 86.5281H49.7135V88.0955H44.6906Z" fill="#EB6500"/>
<path d="M53.3326 88.2C52.6768 88.2 52.1153 88.0503 51.6478 87.7507C51.1874 87.4512 50.8351 87.0227 50.5909 86.4654C50.3468 85.9011 50.2247 85.2254 50.2247 84.4382C50.2247 83.651 50.3468 82.9787 50.5909 82.4214C50.8351 81.8572 51.1874 81.4252 51.6478 81.1257C52.1153 80.8261 52.6768 80.6764 53.3326 80.6764C53.9884 80.6764 54.55 80.8261 55.0174 81.1257C55.4848 81.4252 55.8406 81.8572 56.0848 82.4214C56.3289 82.9787 56.451 83.651 56.451 84.4382C56.451 85.2254 56.3289 85.9011 56.0848 86.4654C55.8406 87.0227 55.4848 87.4512 55.0174 87.7507C54.55 88.0503 53.9884 88.2 53.3326 88.2ZM53.3326 86.6953C53.7861 86.6953 54.1349 86.5003 54.3791 86.1101C54.6302 85.72 54.7558 85.1627 54.7558 84.4382C54.7558 83.6928 54.6302 83.1216 54.3791 82.7245C54.1349 82.3204 53.7861 82.1184 53.3326 82.1184C52.8792 82.1184 52.5269 82.3204 52.2757 82.7245C52.0315 83.1216 51.9095 83.6928 51.9095 84.4382C51.9095 85.1627 52.0315 85.72 52.2757 86.1101C52.5269 86.5003 52.8792 86.6953 53.3326 86.6953Z" fill="#EB6500"/>
<path d="M41.172 101.097L46.017 93.7827H47.5762L42.6789 101.097H41.172ZM41.6429 97.6595C41.2871 97.6595 40.9697 97.5724 40.6906 97.3983C40.4116 97.2171 40.1918 96.9733 40.0314 96.6668C39.8779 96.3603 39.8011 96.0119 39.8011 95.6218C39.8011 95.2247 39.8779 94.8729 40.0314 94.5664C40.1918 94.2529 40.4116 94.0091 40.6906 93.835C40.9697 93.6608 41.2871 93.5737 41.6429 93.5737C42.0056 93.5737 42.3231 93.6608 42.5951 93.835C42.8742 94.0091 43.0905 94.2529 43.2439 94.5664C43.3974 94.8729 43.4742 95.2247 43.4742 95.6218C43.4742 96.0119 43.3939 96.3603 43.2335 96.6668C43.073 96.9733 42.8533 97.2171 42.5742 97.3983C42.3021 97.5724 41.9917 97.6595 41.6429 97.6595ZM41.6429 96.5832C41.7615 96.5832 41.8591 96.5449 41.9359 96.4682C42.0196 96.3916 42.0824 96.2802 42.1242 96.1339C42.1661 95.9876 42.187 95.8169 42.187 95.6218C42.187 95.4268 42.1661 95.2561 42.1242 95.1098C42.0824 94.9635 42.0196 94.8521 41.9359 94.7754C41.8591 94.6918 41.7615 94.65 41.6429 94.65C41.5313 94.65 41.4336 94.6918 41.3499 94.7754C41.2662 94.8521 41.1999 94.9635 41.151 95.1098C41.1092 95.2561 41.0883 95.4268 41.0883 95.6218C41.0883 95.8169 41.1092 95.9876 41.151 96.1339C41.1929 96.2802 41.2557 96.3916 41.3394 96.4682C41.4301 96.5449 41.5313 96.5832 41.6429 96.5832ZM47.2204 101.202C46.8646 101.202 46.5472 101.111 46.2682 100.93C45.9891 100.749 45.7693 100.509 45.6089 100.209C45.4554 99.9027 45.3787 99.5544 45.3787 99.1642C45.3787 98.7672 45.4554 98.4153 45.6089 98.1088C45.7624 97.7953 45.9786 97.5515 46.2577 97.3774C46.5367 97.2032 46.8576 97.1161 47.2204 97.1161C47.5832 97.1161 47.9006 97.2032 48.1727 97.3774C48.4517 97.5515 48.668 97.7953 48.8215 98.1088C48.9749 98.4153 49.0517 98.7672 49.0517 99.1642C49.0517 99.5474 48.9715 99.8922 48.811 100.199C48.6506 100.505 48.4308 100.749 48.1518 100.93C47.8797 101.111 47.5692 101.202 47.2204 101.202ZM47.2204 100.126C47.339 100.126 47.4367 100.087 47.5134 100.011C47.5971 99.927 47.6599 99.8156 47.7018 99.6763C47.7436 99.53 47.7646 99.3593 47.7646 99.1642C47.7646 98.9692 47.7436 98.7985 47.7018 98.6522C47.6599 98.5059 47.5971 98.3945 47.5134 98.3178C47.4367 98.2342 47.339 98.1924 47.2204 98.1924C47.1018 98.1924 47.0007 98.2307 46.9169 98.3074C46.8332 98.384 46.767 98.4989 46.7181 98.6522C46.6763 98.7985 46.6553 98.9692 46.6553 99.1642C46.6553 99.3593 46.6763 99.53 46.7181 99.6763C46.767 99.8156 46.8332 99.927 46.9169 100.011C47.0007 100.087 47.1018 100.126 47.2204 100.126Z" fill="#EB6500"/>
<path d="M17.9501 71.1739H8.40251C7.27089 71.1739 6.35353 72.0899 6.35353 73.22V73.2243C6.35353 74.3543 7.27089 75.2703 8.40251 75.2703H17.9501C19.0817 75.2703 19.999 74.3543 19.999 73.2243V73.22C19.999 72.0899 19.0817 71.1739 17.9501 71.1739Z" fill="#FFB985"/>
<path d="M17.9501 78.9068H8.40251C7.27089 78.9068 6.35353 79.8229 6.35353 80.9529V80.9572C6.35353 82.0872 7.27089 83.0032 8.40251 83.0032H17.9501C19.0817 83.0032 19.999 82.0872 19.999 80.9572V80.9529C19.999 79.8229 19.0817 78.9068 17.9501 78.9068Z" fill="#FFB985"/>
<path d="M17.9501 94.2308H8.40251C7.27089 94.2308 6.35353 95.1469 6.35353 96.2769V96.2812C6.35353 97.4112 7.27089 98.3272 8.40251 98.3272H17.9501C19.0817 98.3272 19.999 97.4112 19.999 96.2812V96.2769C19.999 95.1469 19.0817 94.2308 17.9501 94.2308Z" fill="#FFB985"/>
<path d="M107.657 34.0094H35.5343C33.0642 34.0094 31.0618 36.0089 31.0618 38.4755V72.515C31.0618 74.9816 33.0642 76.9811 35.5343 76.9811H107.657C110.128 76.9811 112.13 74.9816 112.13 72.515V38.4755C112.13 36.0089 110.128 34.0094 107.657 34.0094Z" fill="white"/>
<path d="M53.1055 36.1586H36.1283C34.4927 36.1586 33.1668 37.4827 33.1668 39.116V72.0336C33.1668 73.6669 34.4927 74.9909 36.1283 74.9909H53.1055C54.7412 74.9909 56.0671 73.6669 56.0671 72.0336V39.116C56.0671 37.4827 54.7412 36.1586 53.1055 36.1586Z" fill="#00A0F3"/>
<path d="M107.193 36.1586H61.2972C59.6616 36.1586 58.3357 37.4827 58.3357 39.116V72.0336C58.3357 73.6669 59.6616 74.9909 61.2972 74.9909H107.193C108.828 74.9909 110.154 73.6669 110.154 72.0336V39.116C110.154 37.4827 108.828 36.1586 107.193 36.1586Z" fill="#8FD9FF"/>
<path d="M70.9781 56.8447V55.3087H74.5988V56.8447H70.9781Z" fill="#0080C2"/>
<path d="M78.1383 59.1854C77.5453 59.1854 77.0255 59.0635 76.5791 58.8197C76.1396 58.5689 75.7384 58.1405 75.3757 57.5344L76.6523 56.7089C76.8058 56.9527 76.9628 57.1478 77.1232 57.2941C77.2906 57.4404 77.4616 57.5483 77.636 57.618C77.8174 57.6807 78.0057 57.7121 78.2011 57.7121C78.3964 57.7121 78.5743 57.6703 78.7347 57.5867C78.9022 57.4961 79.0347 57.3707 79.1324 57.2105C79.237 57.0503 79.2893 56.8691 79.2893 56.6671C79.2893 56.4511 79.244 56.27 79.1533 56.1237C79.0696 55.9705 78.944 55.8555 78.7766 55.7789C78.6161 55.7023 78.4208 55.6639 78.1906 55.6639C78.0859 55.6639 77.9743 55.6779 77.8557 55.7057C77.7371 55.7266 77.6116 55.758 77.479 55.7998C77.3465 55.8416 77.2104 55.8973 77.0709 55.967L76.6837 54.9325L78.4627 52.9993L78.944 53.2605L75.8884 53.1979V51.7036H80.3881L80.7125 52.3514L78.2952 54.9429L77.8767 54.4518C77.9325 54.4239 78.0232 54.3995 78.1487 54.3787C78.2813 54.3508 78.4069 54.3369 78.5254 54.3369C78.8533 54.3369 79.1603 54.3961 79.4463 54.5145C79.7323 54.6329 79.987 54.7966 80.2102 55.0056C80.4335 55.2146 80.6079 55.4619 80.7334 55.7475C80.859 56.0262 80.9218 56.3258 80.9218 56.6462C80.9218 57.1338 80.7962 57.5692 80.5451 57.9524C80.3009 58.3286 79.9661 58.6281 79.5405 58.8511C79.1219 59.074 78.6545 59.1854 78.1383 59.1854Z" fill="#0080C2"/>
<path d="M84.8441 59.1854C84.1883 59.1854 83.6267 59.0357 83.1593 58.7361C82.6989 58.4366 82.3466 58.0081 82.1024 57.4508C81.8582 56.8865 81.7361 56.2108 81.7361 55.4236C81.7361 54.6364 81.8582 53.9642 82.1024 53.4068C82.3466 52.8426 82.6989 52.4107 83.1593 52.1111C83.6267 51.8115 84.1883 51.6618 84.8441 51.6618C85.4999 51.6618 86.0614 51.8115 86.5289 52.1111C86.9963 52.4107 87.3521 52.8426 87.5962 53.4068C87.8404 53.9642 87.9625 54.6364 87.9625 55.4236C87.9625 56.2108 87.8404 56.8865 87.5962 57.4508C87.3521 58.0081 86.9963 58.4366 86.5289 58.7361C86.0614 59.0357 85.4999 59.1854 84.8441 59.1854ZM84.8441 57.6807C85.2975 57.6807 85.6463 57.4857 85.8905 57.0955C86.1417 56.7054 86.2672 56.1481 86.2672 55.4236C86.2672 54.6782 86.1417 54.107 85.8905 53.7099C85.6463 53.3058 85.2975 53.1038 84.8441 53.1038C84.3906 53.1038 84.0383 53.3058 83.7872 53.7099C83.543 54.107 83.4209 54.6782 83.4209 55.4236C83.4209 56.1481 83.543 56.7054 83.7872 57.0955C84.0383 57.4857 84.3906 57.6807 84.8441 57.6807Z" fill="#0080C2"/>
<path d="M90.1684 59.081L95.0135 51.7663H96.5727L91.6753 59.081H90.1684ZM90.6393 55.643C90.2835 55.643 89.9661 55.556 89.6871 55.3818C89.408 55.2007 89.1883 54.9569 89.0278 54.6503C88.8743 54.3438 88.7976 53.9955 88.7976 53.6054C88.7976 53.2083 88.8743 52.8565 89.0278 52.55C89.1883 52.2365 89.408 51.9927 89.6871 51.8185C89.9661 51.6444 90.2835 51.5573 90.6393 51.5573C91.0021 51.5573 91.3195 51.6444 91.5916 51.8185C91.8706 51.9927 92.0869 52.2365 92.2404 52.55C92.3939 52.8565 92.4706 53.2083 92.4706 53.6054C92.4706 53.9955 92.3904 54.3438 92.2299 54.6503C92.0695 54.9569 91.8497 55.2007 91.5707 55.3818C91.2986 55.556 90.9881 55.643 90.6393 55.643ZM90.6393 54.5667C90.7579 54.5667 90.8556 54.5284 90.9323 54.4518C91.016 54.3752 91.0788 54.2637 91.1207 54.1174C91.1626 53.9711 91.1835 53.8004 91.1835 53.6054C91.1835 53.4103 91.1626 53.2397 91.1207 53.0934C91.0788 52.9471 91.016 52.8356 90.9323 52.759C90.8556 52.6754 90.7579 52.6336 90.6393 52.6336C90.5277 52.6336 90.43 52.6754 90.3463 52.759C90.2626 52.8356 90.1963 52.9471 90.1475 53.0934C90.1056 53.2397 90.0847 53.4103 90.0847 53.6054C90.0847 53.8004 90.1056 53.9711 90.1475 54.1174C90.1894 54.2637 90.2521 54.3752 90.3359 54.4518C90.4265 54.5284 90.5277 54.5667 90.6393 54.5667ZM96.2169 59.1854C95.8611 59.1854 95.5437 59.0949 95.2646 58.9138C94.9855 58.7326 94.7658 58.4923 94.6053 58.1927C94.4519 57.8862 94.3751 57.5379 94.3751 57.1478C94.3751 56.7507 94.4519 56.3989 94.6053 56.0924C94.7588 55.7789 94.9751 55.5351 95.2541 55.3609C95.5332 55.1868 95.8541 55.0997 96.2169 55.0997C96.5796 55.0997 96.8971 55.1868 97.1691 55.3609C97.4482 55.5351 97.6644 55.7789 97.8179 56.0924C97.9714 56.3989 98.0481 56.7507 98.0481 57.1478C98.0481 57.5309 97.9679 57.8758 97.8075 58.1823C97.647 58.4888 97.4273 58.7326 97.1482 58.9138C96.8761 59.0949 96.5657 59.1854 96.2169 59.1854ZM96.2169 58.1091C96.3355 58.1091 96.4331 58.0708 96.5099 57.9942C96.5936 57.9106 96.6564 57.7991 96.6982 57.6598C96.7401 57.5135 96.761 57.3428 96.761 57.1478C96.761 56.9527 96.7401 56.782 96.6982 56.6358C96.6564 56.4895 96.5936 56.378 96.5099 56.3014C96.4331 56.2178 96.3355 56.176 96.2169 56.176C96.0983 56.176 95.9971 56.2143 95.9134 56.2909C95.8297 56.3675 95.7634 56.4825 95.7146 56.6358C95.6727 56.782 95.6518 56.9527 95.6518 57.1478C95.6518 57.3428 95.6727 57.5135 95.7146 57.6598C95.7634 57.7991 95.8297 57.9106 95.9134 57.9942C95.9971 58.0708 96.0983 58.1091 96.2169 58.1091Z" fill="#0080C2"/>
<path d="M49.0162 42.1593H39.4686C38.337 42.1593 37.4196 43.0754 37.4196 44.2054V44.2097C37.4196 45.3397 38.337 46.2557 39.4686 46.2557H49.0162C50.1478 46.2557 51.0651 45.3397 51.0651 44.2097V44.2054C51.0651 43.0754 50.1478 42.1593 49.0162 42.1593Z" fill="#8FD9FF"/>
<path d="M49.0162 49.8879H39.4686C38.337 49.8879 37.4196 50.804 37.4196 51.934V51.9383C37.4196 53.0683 38.337 53.9844 39.4686 53.9844H49.0162C50.1478 53.9844 51.0651 53.0683 51.0651 51.9383V51.934C51.0651 50.804 50.1478 49.8879 49.0162 49.8879Z" fill="#8FD9FF"/>
<path d="M49.0162 65.2119H39.4686C38.337 65.2119 37.4196 66.128 37.4196 67.258V67.2623C37.4196 68.3923 38.337 69.3084 39.4686 69.3084H49.0162C50.1478 69.3084 51.0651 68.3923 51.0651 67.2623V67.258C51.0651 66.128 50.1478 65.2119 49.0162 65.2119Z" fill="#8FD9FF"/>
<path d="M90.2239 94.8627C90.2032 95.0082 90.2173 95.1566 90.2652 95.2956C90.3131 95.4346 90.3934 95.5602 90.4994 95.6622C90.708 95.862 90.866 96.1084 90.9603 96.3813C91.0547 96.6541 91.0826 96.9454 91.0418 97.2312C91.0209 97.3771 91.0354 97.5258 91.0841 97.665C91.1328 97.8041 91.2142 97.9295 91.3216 98.0307C91.5302 98.2304 91.6882 98.4769 91.7825 98.7497C91.8768 99.0225 91.9047 99.3139 91.864 99.5996C91.8421 99.7452 91.8558 99.8938 91.9038 100.033C91.9517 100.172 92.0326 100.298 92.1395 100.399C92.4601 100.703 92.6564 101.115 92.6904 101.555L98.6738 97.9533L96.8745 92.7522L89.9398 93.6118C90.0242 93.7359 90.0922 93.8702 90.1421 94.0116C90.2371 94.2847 90.2651 94.5765 90.2239 94.8627Z" fill="#005E8F"/>
<path d="M109.93 88.0582C110.037 88.1596 110.118 88.2851 110.166 88.4243C110.214 88.5635 110.228 88.7122 110.206 88.8577C110.163 89.1467 110.191 89.4417 110.288 89.7174C110.382 89.991 110.541 90.2374 110.752 90.4353C110.858 90.5372 110.939 90.6629 110.987 90.8019C111.035 90.9409 111.049 91.0893 111.028 91.2348C110.985 91.5237 111.013 91.8187 111.11 92.0945C111.202 92.3677 111.36 92.6142 111.57 92.8123C111.677 92.9137 111.758 93.0392 111.806 93.1784C111.854 93.3176 111.868 93.4663 111.846 93.6118C111.803 93.9008 111.831 94.1957 111.928 94.4715C111.978 94.6129 112.046 94.7472 112.13 94.8713L105.195 95.731L103.392 90.504L109.375 86.9019C109.387 87.0484 109.417 87.1928 109.465 87.3318C109.56 87.6077 109.719 87.8569 109.93 88.0582Z" fill="#005E8F"/>
<path d="M102 89.1915L97.1833 90.8543C94.8645 91.6547 93.6346 94.1807 94.4362 96.4962C95.2378 98.8117 97.7673 100.04 100.086 99.2394L104.903 97.5766C107.222 96.7761 108.452 94.2502 107.65 91.9347C106.849 89.6192 104.319 88.391 102 89.1915Z" fill="#0080C2"/>
</svg>
