<svg width="176" height="144" viewBox="0 0 176 144" fill="none" xmlns="http://www.w3.org/2000/svg">
<path d="M59.8656 0.633301C67.6985 3.06421 70.1294 9.34404 70.1294 16.5017C70.0619 22.1738 69.3866 27.8459 68.0361 33.383C65.1326 46.0102 61.5537 58.5023 58.5826 71.062C56.1517 81.3934 53.9234 91.8598 53.8559 102.529C53.9234 105.432 54.3961 108.336 55.2064 111.104C56.7594 116.642 61.4187 117.047 64.93 113.67C67.1583 111.51 69.1841 109.214 71.0072 106.715C79.7855 95.0335 87.5509 82.6088 94.1684 69.5765C100.583 57.0843 115.236 28.8588 116.114 27.1707C120.706 18.73 133.4 20.1481 137.249 28.3861C139.41 32.8428 140.626 37.7721 140.828 42.7015C141.166 53.3704 142.179 83.149 142.651 87.4031C143.529 95.6412 148.796 98.2747 155.819 93.683C160.073 90.9144 163.922 87.4031 167.771 84.0944C171.35 80.9207 173.24 81.2583 174.996 85.715C176.549 89.6314 175.874 93.5479 174.591 97.2618C170.269 109.821 160.883 116.506 148.391 119.207C144.407 120.085 140.288 120.153 136.237 119.478C127.256 117.992 121.516 112.793 118.072 104.757C114.764 96.9917 113.751 74.911 113.008 72.0749C111.792 74.6409 97.4096 104.284 89.8468 115.561C85.12 122.786 79.3804 129.336 72.7629 134.941C66.213 140.41 58.7852 143.787 50.0744 143.989C39.5405 144.259 31.9102 139.465 26.6432 130.552C23.267 124.812 21.8489 118.397 21.3763 111.78C20.701 102.529 22.1866 93.4804 24.2123 84.432C24.8876 81.5284 25.3602 78.5573 26.103 74.8434C23.1994 76.329 21.3087 77.6795 19.1479 78.4223C16.582 79.3001 13.8134 80.1779 11.1124 80.1104C1.52386 79.8403 0.105835 69.2389 0.105835 67.4832C3.34704 64.9848 6.79082 62.6889 9.76193 59.9879C23.9422 47.1581 34.6112 31.7624 42.3091 14.3409C44.875 8.60127 48.0487 3.67193 53.7208 0.633301C55.6115 -0.177001 57.2996 -0.244526 59.8656 0.633301Z" fill="#EB524F"/>
</svg>
