<svg width="24" height="24" viewBox="0 0 24 24" fill="none" xmlns="http://www.w3.org/2000/svg">
<g clip-path="url(#clip0_11_1194)">
<path d="M18.8441 23.04C17.5433 24.3024 16.1081 24.1056 14.7401 23.5104C13.2857 22.9032 11.9561 22.8648 10.4201 23.5104C8.50726 24.336 7.49206 24.096 6.34006 23.04C-0.163937 16.3441 0.796063 6.14409 8.18806 5.76009C9.98086 5.85609 11.2361 6.75129 12.2921 6.82569C13.8617 6.50649 15.3641 5.59209 17.0441 5.71209C19.0625 5.87529 20.5721 6.67209 21.5801 8.10489C17.4281 10.6009 18.4121 16.0729 22.2257 17.6089C21.4625 19.6129 20.4833 21.5928 18.8417 23.0568L18.8441 23.04ZM12.1481 5.68809C11.9537 2.7121 14.3657 0.264108 17.1401 0.0241089C17.5217 3.4561 14.0201 6.02409 12.1481 5.68809Z" fill="black"/>
</g>
<defs>
<clipPath id="clip0_11_1194">
<rect width="24" height="24" fill="white"/>
</clipPath>
</defs>
</svg>
