<svg width="24" height="24" viewBox="0 0 24 24" fill="none" xmlns="http://www.w3.org/2000/svg">
<g clip-path="url(#clip0_11_1199)">
<path d="M24.0002 12.2701C24.0002 11.4801 23.9287 10.7301 23.8061 10.0001H12.2607V14.5101H18.8712C18.5749 15.9901 17.7065 17.2401 16.4191 18.0901V21.0901H20.3629C22.672 19.0001 24.0002 15.9201 24.0002 12.2701Z" fill="#4285F4"/>
<path d="M12.2589 24C15.5693 24 18.3381 22.92 20.3611 21.09L16.4173 18.09C15.3139 18.81 13.9141 19.25 12.2589 19.25C9.06098 19.25 6.35344 17.14 5.38282 14.29H1.31641V17.38C3.32918 21.3 7.46711 24 12.2589 24Z" fill="#34A853"/>
<path d="M5.38442 14.2899C5.12899 13.5699 4.99617 12.7999 4.99617 11.9999C4.99617 11.1999 5.13921 10.4299 5.38442 9.70987V6.61987H1.31801C0.480203 8.23987 0 10.0599 0 11.9999C0 13.9399 0.480203 15.7599 1.31801 17.3799L5.38442 14.2899Z" fill="#FBBC05"/>
<path d="M12.2589 4.75C14.0674 4.75 15.6817 5.36 16.9588 6.55L20.4531 3.13C18.3381 1.19 15.5693 0 12.2589 0C7.46711 0 3.32918 2.7 1.31641 6.62L5.38282 9.71C6.35344 6.86 9.06098 4.75 12.2589 4.75Z" fill="#EA4335"/>
</g>
<defs>
<clipPath id="clip0_11_1199">
<rect width="24" height="24" fill="white"/>
</clipPath>
</defs>
</svg>
