<svg width="172" height="28" viewBox="0 0 172 28" fill="none" xmlns="http://www.w3.org/2000/svg">
<path d="M23.6406 27.249V1.18719H25.1791C26.1409 1.18942 27.0625 1.57304 27.7418 2.2539C28.4211 2.93477 28.8026 3.85726 28.8025 4.81903V9.65308C29.5381 8.72476 30.4716 7.97227 31.5348 7.45044C32.6453 6.89087 33.8727 6.60274 35.1162 6.60973C39.7569 6.60973 42.0773 9.36444 42.0773 14.8739V27.2322H40.4967C39.5357 27.2322 38.6141 26.8504 37.9346 26.1709C37.2551 25.4914 36.8733 24.5698 36.8733 23.6088V15.2606C36.8733 12.3798 35.6627 10.9786 33.2415 11.0571C32.1049 11.0189 30.9972 11.4192 30.1477 12.1752C29.7382 12.5626 29.4138 13.031 29.1953 13.5506C28.9767 14.0703 28.8687 14.6297 28.8782 15.1933V27.1986L23.6406 27.249Z" fill="#004366"/>
<path d="M54.5285 27.6358C52.9069 27.6532 51.3192 27.1719 49.9803 26.257C48.5979 25.3052 47.4834 24.014 46.7435 22.5075C45.9515 20.808 45.541 18.9558 45.541 17.0808C45.541 15.2058 45.9515 13.3535 46.7435 11.654C47.4904 10.1526 48.6254 8.87829 50.0307 7.96333C51.4419 7.06719 53.084 6.6026 54.7555 6.62661C56.0557 6.59127 57.3443 6.8802 58.505 7.46731C59.4278 8.11789 60.2739 8.87092 61.0271 9.71199C61.4979 8.14828 62.8683 6.60139 66.2311 7.03014V27.207C65.0358 27.405 63.8087 27.2502 62.7001 26.7615C61.8891 26.2272 61.2935 25.4231 61.0187 24.4916C60.2603 25.4182 59.3149 26.1745 58.2444 26.711C57.0991 27.3161 55.8238 27.6334 54.5285 27.6358V27.6358ZM55.9409 23.0792C56.6583 23.0996 57.3712 22.9592 58.0272 22.6683C58.6833 22.3773 59.266 21.9432 59.7324 21.3978C60.6761 20.1548 61.187 18.6371 61.187 17.0766C61.187 15.516 60.6761 13.9983 59.7324 12.7553C59.266 12.2099 58.6833 11.7758 58.0272 11.4848C57.3712 11.1939 56.6583 11.0535 55.9409 11.0739C55.2334 11.0545 54.5307 11.1957 53.8856 11.487C53.2406 11.7782 52.6699 12.2118 52.2165 12.7553C51.2833 14.0027 50.7789 15.5187 50.7789 17.0766C50.7789 18.6344 51.2833 20.1504 52.2165 21.3978C52.6699 21.9413 53.2406 22.3749 53.8856 22.6662C54.5307 22.9574 55.2334 23.0986 55.9409 23.0792V23.0792Z" fill="#004366"/>
<path d="M89.2243 14.9997C89.2243 9.49024 86.9039 6.73553 82.2632 6.73553C81.0386 6.75035 79.8327 7.038 78.7333 7.57755C77.6338 8.11709 76.6685 8.89496 75.9075 9.85455C75.641 9.03949 75.1375 8.32238 74.4615 7.79483C73.3702 7.10292 72.0508 6.86742 70.7876 7.13908V27.316H76.042V15.3528C76.0325 14.7891 76.1405 14.2297 76.3591 13.7101C76.5776 13.1905 76.902 12.722 77.3115 12.3346C78.161 11.5787 79.2687 11.1783 80.4053 11.2165C82.8265 11.1156 84.0371 12.5168 84.0371 15.42V25.1133C84.036 25.4106 84.0937 25.7052 84.207 25.9801C84.3202 26.255 84.4868 26.5047 84.697 26.7149C84.9072 26.9252 85.157 27.0917 85.4319 27.2049C85.7067 27.3182 86.0013 27.3759 86.2986 27.3748H89.2411L89.2243 14.9997Z" fill="#004366"/>
<path d="M7.55793 27.2648V6.09589H3.63185C3.1553 6.097 2.68322 6.00408 2.24264 5.82249C1.80205 5.64089 1.40162 5.37416 1.06426 5.03758C0.726902 4.70101 0.459246 4.30119 0.276626 3.86103C0.0940056 3.42086 -1.28267e-06 2.949 0 2.47246V1.22822H17.0579C17.5344 1.22711 18.0065 1.32001 18.4471 1.50161C18.8877 1.68321 19.2881 1.94994 19.6255 2.28651C19.9628 2.62309 20.2305 3.02291 20.4131 3.46307C20.5957 3.90324 20.6897 4.37511 20.6897 4.85165V6.09589H12.9132V27.2648H7.55793Z" fill="#004366"/>
<path d="M108.148 11.4598L104.786 6.85273H111.629L108.148 11.4598ZM96.7989 22.7252L93.4361 27.3323H100.279L96.7989 22.7252ZM91.5025 1.21161H87.6353L104.66 24.9279C105.196 25.6733 105.902 26.2808 106.719 26.7003C107.536 27.1198 108.441 27.3393 109.359 27.3407H113.218L96.202 3.62443C95.6671 2.87744 94.9616 2.26887 94.1443 1.84923C93.3269 1.42959 92.4213 1.211 91.5025 1.21161Z" fill="url(#paint0_linear_2_1881)"/>
<path d="M117.698 11.0363V1.24469H124.273V1.24469C124.273 2.25672 123.452 3.07713 122.44 3.07713H119.713V5.34319H123.685V5.34319C123.685 6.31659 122.896 7.10569 121.923 7.10569H119.713V11.0363H117.698Z" fill="#004366"/>
<path d="M126.733 2.1122C126.36 2.1122 126.067 2.01894 125.852 1.83244C125.647 1.64593 125.544 1.38948 125.544 1.06309C125.544 0.74603 125.647 0.489583 125.852 0.29375C126.067 0.0979168 126.36 0 126.733 0C127.106 0 127.396 0.0932537 127.601 0.279761C127.806 0.466269 127.908 0.72738 127.908 1.06309C127.908 1.37083 127.801 1.62262 127.587 1.81845C127.382 2.01428 127.097 2.1122 126.733 2.1122ZM125.782 11.0366V5.2288C125.782 4.18457 126.629 3.33806 127.673 3.33806H127.699V9.14585C127.699 10.1901 126.852 11.0366 125.808 11.0366H125.782Z" fill="#004366"/>
<path d="M136.788 6.35653C136.788 4.27527 135.91 3.23358 134.155 3.23147C133.683 3.22683 133.216 3.33586 132.795 3.54938C132.387 3.75035 132.03 4.04174 131.752 4.40137C131.651 4.09316 131.461 3.82199 131.205 3.62249C130.793 3.36085 130.294 3.2718 129.816 3.37452V11.0044H131.803V6.49005C131.799 6.27691 131.84 6.06536 131.923 5.86887C132.005 5.67238 132.128 5.49524 132.283 5.34875C132.604 5.06289 133.023 4.91151 133.453 4.92593C134.368 4.88778 134.826 5.41763 134.826 6.51548V10.181C134.826 10.4078 134.916 10.6253 135.077 10.7857C135.237 10.9461 135.455 11.0362 135.681 11.0362H136.794L136.788 6.35653Z" fill="#004366"/>
<path d="M141.464 11.0357C140.851 11.0419 140.251 10.8599 139.744 10.5143C139.222 10.1535 138.801 9.66552 138.52 9.09646C138.221 8.4538 138.065 7.75337 138.065 7.04434C138.065 6.33531 138.221 5.63488 138.52 4.99223C138.804 4.42433 139.234 3.94251 139.766 3.5966C140.3 3.25687 140.921 3.08111 141.553 3.09112C142.045 3.07856 142.532 3.18777 142.971 3.40903C143.318 3.65684 143.638 3.94143 143.925 4.25785C144.099 3.66654 144.621 3.08158 145.889 3.24372V10.8736C145.438 10.9486 144.975 10.89 144.557 10.7051C144.251 10.5022 144.026 10.1985 143.921 9.84673C143.635 10.1971 143.277 10.4831 142.872 10.686C142.438 10.9153 141.955 11.0353 141.464 11.0357V11.0357ZM142.001 9.31263C142.272 9.32034 142.541 9.26722 142.789 9.15719C143.036 9.04715 143.256 8.883 143.432 8.67681C143.789 8.2068 143.982 7.63289 143.982 7.04275C143.982 6.45261 143.789 5.8787 143.432 5.40869C143.256 5.2025 143.036 5.03835 142.789 4.92832C142.541 4.81828 142.272 4.76516 142.001 4.77287C141.733 4.76598 141.467 4.81956 141.223 4.92964C140.979 5.03972 140.762 5.20346 140.59 5.40869C140.237 5.88038 140.046 6.45365 140.046 7.04275C140.046 7.63185 140.237 8.20512 140.59 8.67681C140.762 8.88204 140.979 9.04579 141.223 9.15587C141.467 9.26594 141.733 9.31953 142.001 9.31263V9.31263Z" fill="#004366"/>
<path d="M154.451 6.35653C154.451 4.27527 153.573 3.23358 151.818 3.23147C151.346 3.22683 150.879 3.33586 150.458 3.54938C150.05 3.75035 149.693 4.04174 149.415 4.40137C149.314 4.09316 149.124 3.82199 148.868 3.62249C148.456 3.36085 147.957 3.2718 147.479 3.37452V11.0044H149.466V6.49005C149.462 6.27691 149.503 6.06536 149.586 5.86887C149.668 5.67238 149.791 5.49524 149.946 5.34875C150.267 5.06289 150.686 4.91151 151.116 4.92593C152.031 4.88778 152.489 5.41763 152.489 6.51548V10.181C152.489 10.4078 152.579 10.6253 152.74 10.7857C152.9 10.9461 153.118 11.0362 153.344 11.0362H154.457L154.451 6.35653Z" fill="#004366"/>
<path d="M159.529 11.0362C158.807 11.0362 158.157 10.8625 157.579 10.515C157.01 10.1676 156.557 9.69469 156.22 9.09632C155.893 8.49794 155.729 7.81753 155.729 7.05509C155.729 6.30229 155.893 5.62671 156.22 5.02833C156.557 4.42996 157.01 3.95705 157.579 3.60961C158.157 3.26216 158.807 3.08844 159.529 3.08844C160.213 3.08844 160.835 3.21391 161.394 3.46484C161.962 3.71577 162.405 4.06804 162.723 4.52164L162.347 4.97321C161.989 5.4046 161.295 5.3824 160.801 5.11519V5.11519C160.445 4.91252 160.083 4.81118 159.717 4.81118C159.313 4.81118 158.951 4.91252 158.634 5.11519C158.325 5.30822 158.08 5.57363 157.897 5.91142C157.723 6.24921 157.636 6.63043 157.636 7.05509C157.636 7.47974 157.728 7.86096 157.911 8.19875C158.094 8.53654 158.345 8.80678 158.662 9.00945C158.98 9.20248 159.337 9.29899 159.732 9.29899C160.108 9.29899 160.454 9.21696 160.772 9.05288V9.05288C161.292 8.76894 161.987 8.74718 162.366 9.2024L162.723 9.63196C162.395 10.0566 161.943 10.3992 161.365 10.6598C160.787 10.9107 160.175 11.0362 159.529 11.0362Z" fill="#004366"/>
<path d="M167.892 11.0362C167.051 11.0362 166.313 10.8676 165.68 10.5304C165.047 10.1933 164.552 9.73085 164.196 9.14319C163.85 8.55554 163.677 7.88118 163.677 7.12013C163.677 6.33017 163.845 5.63654 164.181 5.03926C164.528 4.43233 164.998 3.95547 165.591 3.60866C166.195 3.26185 166.887 3.08844 167.669 3.08844C168.371 3.08844 169 3.25703 169.554 3.59421C170.118 3.92175 170.553 4.36972 170.86 4.9381C171.176 5.50649 171.325 6.15676 171.305 6.88892L171.29 7.51029H165.651C165.759 8.05941 166.027 8.49292 166.452 8.81083C166.887 9.12874 167.436 9.2877 168.099 9.2877C168.455 9.2877 168.777 9.23471 169.064 9.12874V9.12874C169.634 8.92524 170.313 8.97108 170.672 9.45835L170.993 9.89462C170.568 10.2607 170.078 10.5449 169.524 10.7472C168.98 10.9399 168.436 11.0362 167.892 11.0362ZM167.684 4.7936C166.566 4.7936 165.893 5.28491 165.665 6.26755H169.376V6.20975C169.346 5.7955 169.168 5.45832 168.841 5.19821C168.525 4.92847 168.139 4.7936 167.684 4.7936Z" fill="#004366"/>
<defs>
<linearGradient id="paint0_linear_2_1881" x1="87.6353" y1="14.2762" x2="113.209" y2="14.2762" gradientUnits="userSpaceOnUse">
<stop stop-color="#FF7E1D"/>
<stop offset="0.6" stop-color="#FF5F36"/>
<stop offset="1" stop-color="#FF5043"/>
</linearGradient>
</defs>
</svg>
