<svg width="350" height="120" viewBox="0 0 350 120" fill="none" xmlns="http://www.w3.org/2000/svg">
<mask id="mask0_4_3461" style="mask-type:alpha" maskUnits="userSpaceOnUse" x="0" y="0" width="350" height="120">
<path d="M0 0H350V96C350 109.255 339.255 120 326 120H24C10.7452 120 0 109.255 0 96V0Z" fill="#D9D9D9"/>
</mask>
<g mask="url(#mask0_4_3461)">
</g>
<g clip-path="url(#clip0_4_3461)">
<path d="M0 -84H350V96C350 109.255 339.255 120 326 120H24C10.7452 120 0 109.255 0 96V-84Z" fill="white"/>
<rect x="76" y="54" width="14" height="14" transform="rotate(-90 76 54)" fill="#FFEB99"/>
<rect opacity="0.3" x="-49.0869" y="-12" width="124.102" height="53.9314" transform="rotate(33.6867 -49.0869 -12)" fill="#FFE266"/>
<rect opacity="0.2" x="393.076" y="54.4055" width="79.991" height="37.9812" transform="rotate(129.984 393.076 54.4055)" fill="#FFB985"/>
<path d="M42.7262 123.697C43.4614 123.469 44.1679 124.122 43.9978 124.873L39.0249 146.834C38.8549 147.585 37.9359 147.87 37.3707 147.347L20.8387 132.06C20.2735 131.537 20.486 130.599 21.2212 130.371L42.7262 123.697Z" fill="#FFB985"/>
<path d="M278.561 46.6133C279.138 46.1034 280.051 46.4091 280.204 47.1635L282.617 59.0453C282.77 59.7997 282.049 60.4371 281.319 60.1926L269.822 56.3412C269.093 56.0966 268.901 55.1536 269.478 54.6438L278.561 46.6133Z" fill="#FFAEA8"/>
<path d="M210.5 136.5L295.5 125.5L301.102 148.239L214.5 198.239L210.5 136.5Z" fill="#FFEB99"/>
</g>
<defs>
<clipPath id="clip0_4_3461">
<path d="M0 -84H350V96C350 109.255 339.255 120 326 120H24C10.7452 120 0 109.255 0 96V-84Z" fill="white"/>
</clipPath>
</defs>
</svg>
