<svg width="90" height="110" viewBox="0 0 90 110" fill="none" xmlns="http://www.w3.org/2000/svg">
<path opacity="0.3" d="M65.4421 29.8241C72.1123 29.8241 77.5196 24.6038 77.5196 18.1642C77.5196 11.7246 72.1123 6.50433 65.4421 6.50433C58.7718 6.50433 53.3645 11.7246 53.3645 18.1642C53.3645 24.6038 58.7718 29.8241 65.4421 29.8241Z" fill="#FFB985"/>
<path opacity="0.3" d="M66.738 73.2048C73.4082 73.2048 78.8155 67.9844 78.8155 61.5449C78.8155 55.1053 73.4082 49.8849 66.738 49.8849C60.0677 49.8849 54.6604 55.1053 54.6604 61.5449C54.6604 67.9844 60.0677 73.2048 66.738 73.2048Z" fill="#FFB985"/>
<path opacity="0.3" d="M27.2053 37.607C28.7912 31.1199 24.6296 24.6198 17.9101 23.0886C11.1905 21.5575 4.45759 25.5752 2.87163 32.0624C1.28567 38.5496 5.44727 45.0497 12.1668 46.5808C18.8864 48.1119 25.6193 44.0942 27.2053 37.607Z" fill="#FFB985"/>
<path opacity="0.3" d="M47.0554 47.0082C48.4583 41.2696 44.7769 35.5196 38.8328 34.1651C32.8887 32.8107 26.9327 36.3648 25.5298 42.1034C24.1268 47.8419 27.8082 53.5919 33.7523 54.9464C39.6964 56.3008 45.6524 52.7467 47.0554 47.0082Z" fill="#FFB985"/>
<path opacity="0.3" d="M32.5048 72.8321C33.9078 67.0935 30.2264 61.3435 24.2823 59.9891C18.3381 58.6346 12.3822 62.1887 10.9792 67.9273C9.57627 73.6658 13.2576 79.4159 19.2018 80.7703C25.1459 82.1247 31.1019 78.5707 32.5048 72.8321Z" fill="#FFB985"/>
<path opacity="0.3" d="M43.6045 12.0963C44.6685 7.74398 41.8765 3.38295 37.3682 2.3557C32.86 1.32846 28.3427 4.02398 27.2787 8.37633C26.2146 12.7287 29.0067 17.0897 33.515 18.117C38.0232 19.1442 42.5405 16.4487 43.6045 12.0963Z" fill="#FFB985"/>
<path d="M35.875 46.5263C37.7169 38.9924 32.8838 31.4434 25.08 29.6653C17.2762 27.8871 9.45688 32.553 7.61501 40.087C5.77315 47.6209 10.6063 55.1698 18.41 56.948C26.2138 58.7262 34.0332 54.0602 35.875 46.5263Z" fill="#FFB985"/>
<path d="M79.8931 99.3302C80.6705 93.9733 80.6959 88.5397 79.9686 83.1763C78.7399 74.6217 70.7427 76.6662 70.7427 76.6662L78.2157 100.622L79.8931 99.3302Z" fill="#E8E8E8"/>
<path d="M77.897 99.9415C74.7298 97.0624 71.9805 93.783 69.7237 90.1925C66.1675 84.4354 72.0301 81.9294 72.0301 81.9294L79.5577 99.9415H77.897Z" fill="#E8E8E8"/>
<path d="M78.1023 100.792C81.2633 95.2862 83.6389 89.3935 85.1644 83.2735C87.5254 73.4881 77.9598 72.4921 77.9598 72.4921L75.7288 101.524L78.1023 100.792Z" fill="#0080C2"/>
<path d="M79.2182 99.9415C82.6521 97.5593 85.7371 94.7403 88.3896 91.5609C92.5832 86.4597 87.2615 83.3221 87.2615 83.3221L77.6162 99.731L79.2182 99.9415Z" fill="#0080C2"/>
<path d="M86.0034 109.5H72.7726L70.0845 95.7472H88.7628L86.0034 109.5Z" fill="#005E8F"/>
<path d="M67.9486 71.7063C74.5027 65.3789 74.5027 55.1201 67.9486 48.7927C61.3945 42.4652 50.7682 42.4652 44.2141 48.7927C37.6601 55.1201 37.6601 65.3789 44.2141 71.7063C50.7682 78.0338 61.3945 78.0338 67.9486 71.7063Z" fill="#FFB985"/>
<path d="M56.0819 72.638C63.1691 72.638 68.9143 67.0914 68.9143 60.2494C68.9143 53.4073 63.1691 47.8607 56.0819 47.8607C48.9948 47.8607 43.2495 53.4073 43.2495 60.2494C43.2495 67.0914 48.9948 72.638 56.0819 72.638Z" fill="#FF7E1D"/>
<path d="M47.2908 61.7028V60.3643H49.0952V58.6321H50.5938V60.3643H52.3983V61.7028H50.5938V63.4448H49.0952V61.7028H47.2908Z" fill="white"/>
<path d="M53.4448 63.8287L53.0982 63.0216L55.1677 60.8564C55.324 60.6923 55.4973 60.4988 55.6876 60.2757C55.8779 60.0526 56.0411 59.8295 56.177 59.6064C56.3129 59.3833 56.3809 59.1898 56.3809 59.0257C56.3809 58.8552 56.3197 58.7108 56.1974 58.5927C56.075 58.4746 55.8881 58.4155 55.6367 58.4155C55.1813 58.4155 54.7939 58.7502 54.4745 59.4194L53.1186 58.7206C53.2613 58.3401 53.4686 58.0022 53.7405 57.7069C54.0123 57.4116 54.325 57.182 54.6784 57.018C55.0318 56.8539 55.409 56.7719 55.81 56.7719C56.2382 56.7785 56.6222 56.8671 56.962 57.0376C57.3086 57.2017 57.5839 57.4346 57.7877 57.7364C57.9916 58.0383 58.0936 58.3893 58.0936 58.7895C58.0936 59.1373 57.9882 59.5211 57.7776 59.9411C57.5669 60.3544 57.1999 60.84 56.6765 61.3977L55.8406 62.2835H58.43V63.8287H53.4448Z" fill="white"/>
<path d="M61.966 63.9271C60.9806 63.9271 60.2194 63.6187 59.6824 63.002C59.1455 62.3786 58.8771 61.506 58.8771 60.384C58.8771 59.262 59.1455 58.3926 59.6824 57.7758C60.2194 57.1525 60.9806 56.8408 61.966 56.8408C62.9583 56.8408 63.7229 57.1525 64.2598 57.7758C64.8035 58.3926 65.0754 59.262 65.0754 60.384C65.0754 61.506 64.8035 62.3786 64.2598 63.002C63.7229 63.6187 62.9583 63.9271 61.966 63.9271ZM61.966 62.441C62.401 62.441 62.734 62.2638 62.9651 61.9095C63.203 61.5486 63.3219 61.0401 63.3219 60.384C63.3219 59.7016 63.203 59.1799 62.9651 58.8191C62.734 58.4516 62.401 58.2679 61.966 58.2679C61.5379 58.2679 61.2048 58.4516 60.967 58.8191C60.7291 59.1799 60.6101 59.7016 60.6101 60.384C60.6101 61.0401 60.7291 61.5486 60.967 61.9095C61.2048 62.2638 61.5379 62.441 61.966 62.441Z" fill="white"/>
<path d="M11.1726 66.7999H44.3482V109.5H13.8607C13.5072 109.5 13.1571 109.433 12.8304 109.302C12.5038 109.172 12.207 108.98 11.957 108.739C11.707 108.498 11.5087 108.211 11.3734 107.896C11.2381 107.58 11.1685 107.242 11.1685 106.901V66.7999H11.1726Z" fill="#5CC7FF"/>
<path d="M44.344 66.7999H77.5405V106.905C77.5405 107.594 77.2569 108.256 76.752 108.743C76.2471 109.23 75.5623 109.504 74.8482 109.504H44.344V66.7999Z" fill="#00A0F3"/>
<path d="M11.1723 66.7999L5.45224 76.4841C5.26536 76.8023 5.16812 77.1622 5.1702 77.5279C5.17228 77.8937 5.27361 78.2526 5.4641 78.5688C5.65458 78.885 5.92757 79.1474 6.25586 79.3301C6.58415 79.5127 6.95628 79.609 7.33516 79.6096H34.2371C35.0942 79.6106 35.9357 79.3891 36.6736 78.9681C37.4114 78.5471 38.0183 77.9422 38.4307 77.2169L44.3437 66.7999H11.1723Z" fill="#8FD9FF"/>
<path d="M77.5405 66.7999L83.1432 76.2897C83.3432 76.6275 83.4477 77.0101 83.4462 77.3992C83.4447 77.7883 83.3373 78.1702 83.1346 78.5065C82.9319 78.8428 82.6412 79.1218 82.2916 79.3154C81.942 79.509 81.5458 79.6105 81.1428 79.6096H54.4296C53.58 79.6108 52.7458 79.3912 52.0145 78.9737C51.2833 78.5563 50.6819 77.9564 50.2737 77.2371L44.344 66.7999H77.5405Z" fill="#5CC7FF"/>
<path d="M86.8963 39.4517H83.4114V36.0954C83.3894 35.6636 83.1963 35.2564 82.8719 34.9582C82.5475 34.6601 82.1168 34.4938 81.6689 34.4938C81.2211 34.4938 80.7903 34.6601 80.466 34.9582C80.1416 35.2564 79.9485 35.6636 79.9265 36.0954V39.4598H76.4416C76.2056 39.4486 75.9697 39.4838 75.7482 39.5633C75.5267 39.6428 75.3243 39.7649 75.1531 39.9222C74.982 40.0795 74.8458 40.2688 74.7527 40.4784C74.6596 40.6881 74.6116 40.9139 74.6116 41.142C74.6116 41.3701 74.6596 41.5959 74.7527 41.8055C74.8458 42.0152 74.982 42.2044 75.1531 42.3617C75.3243 42.519 75.5267 42.6411 75.7482 42.7206C75.9697 42.8001 76.2056 42.8353 76.4416 42.8242H79.9265V46.1885C79.9485 46.6204 80.1416 47.0276 80.466 47.3257C80.7903 47.6239 81.2211 47.7902 81.6689 47.7902C82.1168 47.7902 82.5475 47.6239 82.8719 47.3257C83.1963 47.0276 83.3894 46.6204 83.4114 46.1885V42.8161H86.8921C87.1281 42.8273 87.364 42.792 87.5855 42.7125C87.807 42.633 88.0094 42.5109 88.1805 42.3536C88.3517 42.1963 88.4879 42.0071 88.581 41.7974C88.6741 41.5878 88.7221 41.362 88.7221 41.1339C88.7221 40.9058 88.6741 40.68 88.581 40.4703C88.4879 40.2607 88.3517 40.0714 88.1805 39.9141C88.0094 39.7568 87.807 39.6347 87.5855 39.5552C87.364 39.4757 87.1281 39.4405 86.8921 39.4517H86.8963Z" fill="#C2EAFF"/>
<path d="M21.7443 54.1238C27.9305 54.1238 32.9454 49.2824 32.9454 43.3101C32.9454 37.3378 27.9305 32.4963 21.7443 32.4963C15.5581 32.4963 10.5432 37.3378 10.5432 43.3101C10.5432 49.2824 15.5581 54.1238 21.7443 54.1238Z" fill="#FF7E1D"/>
<path d="M58.8788 38.5692C65.5491 38.5692 70.9564 33.3489 70.9564 26.9093C70.9564 20.4697 65.5491 15.2494 58.8788 15.2494C52.2086 15.2494 46.8013 20.4697 46.8013 26.9093C46.8013 33.3489 52.2086 38.5692 58.8788 38.5692Z" fill="#FFB985"/>
<path d="M58.8788 35.8688C64.0043 35.8688 68.1593 31.8575 68.1593 26.9093C68.1593 21.9611 64.0043 17.9498 58.8788 17.9498C53.7534 17.9498 49.5984 21.9611 49.5984 26.9093C49.5984 31.8575 53.7534 35.8688 58.8788 35.8688Z" fill="#FF7E1D"/>
<path d="M13.9609 44.6016V43.4442H15.5212V41.9464H16.817V43.4442H18.3772V44.6016H16.817V46.1079H15.5212V44.6016H13.9609Z" fill="white"/>
<path d="M19.5025 46.4398V45.1037H20.6573V42.1422L19.6435 42.5847L19.3879 41.2231L21.1597 40.3976H22.2087V45.1037H23.3899V46.4398H19.5025Z" fill="white"/>
<path d="M26.8567 46.5249C26.0046 46.5249 25.3464 46.2582 24.8822 45.7249C24.4179 45.1859 24.1858 44.4314 24.1858 43.4612C24.1858 42.4911 24.4179 41.7393 24.8822 41.206C25.3464 40.6671 26.0046 40.3976 26.8567 40.3976C27.7147 40.3976 28.3758 40.6671 28.8401 41.206C29.3102 41.7393 29.5453 42.4911 29.5453 43.4612C29.5453 44.4314 29.3102 45.1859 28.8401 45.7249C28.3758 46.2582 27.7147 46.5249 26.8567 46.5249ZM26.8567 45.2398C27.2328 45.2398 27.5208 45.0867 27.7206 44.7803C27.9263 44.4683 28.0291 44.0286 28.0291 43.4612C28.0291 42.8712 27.9263 42.4202 27.7206 42.1081C27.5208 41.7904 27.2328 41.6315 26.8567 41.6315C26.4865 41.6315 26.1985 41.7904 25.9929 42.1081C25.7872 42.4202 25.6843 42.8712 25.6843 43.4612C25.6843 44.0286 25.7872 44.4683 25.9929 44.7803C26.1985 45.0867 26.4865 45.2398 26.8567 45.2398Z" fill="white"/>
<path d="M54.6262 27.866V26.903H55.9244V25.6568H57.0026V26.903H58.3009V27.866H57.0026V29.1194H55.9244V27.866H54.6262Z" fill="white"/>
<path d="M60.7554 29.4451C60.3594 29.4451 60 29.3696 59.6772 29.2185C59.3594 29.0674 59.0929 28.8503 58.8778 28.567L59.5892 27.8165C59.7848 28.0242 59.9682 28.1682 60.1393 28.2484C60.3105 28.3239 60.5012 28.3617 60.7114 28.3617C60.9363 28.3617 61.1222 28.2956 61.2689 28.1634C61.4155 28.0313 61.4889 27.8684 61.4889 27.6748C61.4889 27.4766 61.4155 27.3114 61.2689 27.1792C61.1222 27.0423 60.9363 26.9738 60.7114 26.9738C60.5354 26.9738 60.3765 26.9974 60.2347 27.0446C60.0929 27.0871 59.9144 27.1697 59.6992 27.2925L59.1492 26.5915L59.4645 24.3893H62.4424V25.4514H60.352L60.2493 26.1524C60.3618 26.11 60.4792 26.0769 60.6014 26.0533C60.7285 26.025 60.8532 26.0108 60.9755 26.0108C61.3031 26.0108 61.5965 26.084 61.8556 26.2303C62.1148 26.372 62.3201 26.5726 62.4717 26.8322C62.6233 27.0871 62.6991 27.3798 62.6991 27.7103C62.6991 28.036 62.6135 28.331 62.4424 28.5954C62.2712 28.855 62.039 29.0627 61.7456 29.2185C61.4522 29.3696 61.1222 29.4451 60.7554 29.4451Z" fill="white"/>
<path d="M32.3203 19.8617C31.7701 20.3929 31.7694 21.2536 32.3189 21.784C32.8683 22.3145 33.7598 22.3139 34.3101 21.7826L40.2793 16.0198C40.8295 15.4886 40.8302 14.6279 40.2807 14.0975C39.7313 13.567 38.8398 13.5677 38.2895 14.0989L32.3203 19.8617Z" fill="#FFCE00"/>
<path d="M32.9751 16.5449C33.7718 16.5449 34.4177 15.9214 34.4177 15.1522C34.4177 14.3831 33.7718 13.7595 32.9751 13.7595C32.1783 13.7595 31.5325 14.3831 31.5325 15.1522C31.5325 15.9214 32.1783 16.5449 32.9751 16.5449Z" fill="#FFCE00"/>
<path d="M39.3872 22.3181C40.1839 22.3181 40.8298 21.6946 40.8298 20.9254C40.8298 20.1563 40.1839 19.5327 39.3872 19.5327C38.5905 19.5327 37.9446 20.1563 37.9446 20.9254C37.9446 21.6946 38.5905 22.3181 39.3872 22.3181Z" fill="#FFCE00"/>
</svg>
