<svg width="116" height="110" viewBox="0 0 116 110" fill="none" xmlns="http://www.w3.org/2000/svg">
<path fill-rule="evenodd" clip-rule="evenodd" d="M32.5671 42.4037C31.9736 38.6652 28.7356 35.8075 24.8301 35.8075C21.0392 35.8075 17.8771 38.5001 17.1521 42.0771C17.1002 42.0757 17.0482 42.075 16.996 42.075C13.9672 42.075 11.512 44.5302 11.512 47.559C11.512 49.0275 12.0892 50.3611 13.0291 51.3455C12.3148 52.5268 11.9038 53.912 11.9038 55.3932C11.9038 59.72 15.4113 63.2275 19.738 63.2275C23.4532 63.2275 26.5644 60.6415 27.3697 57.1713C28.2787 57.5403 29.2728 57.7435 30.3143 57.7435C34.6411 57.7435 38.1486 54.236 38.1486 49.9092C38.1486 46.3656 35.7958 43.3714 32.5671 42.4037Z" fill="#FFB985"/>
<path d="M22.7072 87.6484C16.746 87.6477 11.0235 89.9912 6.7752 94.173C2.52686 98.3548 0.0933547 104.04 0 110H45.4143C45.321 104.04 42.8875 98.3548 38.6391 94.173C34.3908 89.9912 28.6684 87.6477 22.7072 87.6484Z" fill="#FFEB99"/>
<g opacity="0.5">
<path opacity="0.5" d="M24.0524 8.46468C24.6012 7.09086 25.4246 5.84347 26.4721 4.79886C27.5197 3.75425 28.7694 2.93438 30.1448 2.38944L24.5237 0.13586C24.2922 0.0432133 24.0446 -0.00290528 23.7953 0.000141704C23.546 0.00318869 23.2997 0.055341 23.0705 0.153618C22.8413 0.251894 22.6337 0.39437 22.4596 0.572901C22.2855 0.751432 22.1483 0.962518 22.0559 1.1941L17.5873 12.3335C17.4932 12.5658 17.446 12.8144 17.4483 13.065C17.4506 13.3156 17.5025 13.5632 17.6008 13.7937C17.6991 14.0243 17.8421 14.2331 18.0213 14.4082C18.2006 14.5833 18.4127 14.7212 18.6455 14.8141L24.2666 17.0634C23.6478 15.7201 23.3096 14.2647 23.2727 12.7861C23.2359 11.3076 23.5012 9.83712 24.0524 8.46468V8.46468Z" fill="#FFB985"/>
<path opacity="0.5" d="M49.72 10.2213L44.0946 7.95917C44.7134 9.30294 45.052 10.7587 45.0897 12.2377C45.1274 13.7166 44.8633 15.1877 44.3137 16.5613C43.764 17.9348 42.9403 19.1819 41.8927 20.2266C40.8452 21.2713 39.5958 22.0916 38.2207 22.6374L43.8418 24.891C44.3095 25.0769 44.8317 25.07 45.2943 24.8716C45.7568 24.6733 46.1219 24.2997 46.3096 23.8328L50.7739 12.6934C50.8673 12.4619 50.9142 12.2143 50.9118 11.9646C50.9093 11.715 50.8577 11.4683 50.7598 11.2387C50.6619 11.0091 50.5197 10.801 50.3412 10.6264C50.1628 10.4518 49.9517 10.3142 49.72 10.2213V10.2213Z" fill="#FFB985"/>
<path opacity="0.5" d="M44.3133 16.575C44.8662 15.1999 45.1321 13.7262 45.0945 12.2445C45.0569 10.7628 44.7167 9.3045 44.0948 7.95915L30.1449 2.38947C28.7706 2.93641 27.522 3.75724 26.475 4.802C25.428 5.84676 24.6046 7.09361 24.0547 8.46668C23.5048 9.83976 23.2401 11.3104 23.2765 12.789C23.313 14.2676 23.6499 15.7234 24.2667 17.0677L38.2209 22.6374C39.5948 22.0935 40.8435 21.2754 41.8909 20.2332C42.9384 19.1909 43.7626 17.9462 44.3133 16.575V16.575Z" fill="#FF7E1D"/>
<path opacity="0.5" d="M36.1644 13.4131C35.8082 12.8581 35.3325 12.3896 34.772 12.0421C34.475 11.8579 34.209 11.628 33.9837 11.3609C33.9022 11.2671 33.8482 11.1527 33.8278 11.0302C33.8074 10.9077 33.8213 10.7819 33.868 10.6668C33.9062 10.5567 33.9733 10.4588 34.0622 10.3835C34.1511 10.3081 34.2586 10.258 34.3735 10.2384C34.6638 10.1866 34.963 10.2255 35.2304 10.3498C35.5334 10.4745 35.7994 10.6746 36.0034 10.9311C36.2073 11.1875 36.3424 11.4918 36.3958 11.815L37.6382 11.3009C37.559 10.8429 37.3543 10.4157 37.047 10.067C36.8472 9.84976 36.6161 9.6635 36.3615 9.51431L36.9099 8.14331L35.6246 7.63776L35.0805 9.00019C34.8386 8.94717 34.5909 8.92557 34.3435 8.93592C33.934 8.94794 33.5343 9.06445 33.1825 9.27439C32.84 9.4812 32.5761 9.79628 32.4327 10.1698C32.3246 10.4156 32.2688 10.6811 32.2688 10.9496C32.2688 11.218 32.3246 11.4836 32.4327 11.7293C32.7387 12.3 33.197 12.7746 33.7566 13.1003C34.0798 13.3071 34.3689 13.563 34.6135 13.8587C34.7099 13.9601 34.7753 14.087 34.8019 14.2245C34.8285 14.3619 34.8151 14.5041 34.7634 14.6341C34.7215 14.7411 34.651 14.8345 34.5595 14.904C34.4681 14.9735 34.3593 15.0165 34.245 15.0283C33.9542 15.0717 33.657 15.0316 33.3881 14.9126C33.0484 14.7772 32.7458 14.5628 32.5055 14.2871C32.218 13.9176 32.02 13.4864 31.9272 13.0275L30.6418 13.6659C30.7513 14.1318 30.9614 14.568 31.2575 14.9441C31.5535 15.3201 31.9284 15.6267 32.3556 15.8423L31.8672 17.0634L33.1525 17.5689L33.658 16.2836C33.8724 16.3257 34.0909 16.343 34.3093 16.335C34.7315 16.3261 35.1422 16.1951 35.4918 15.958C35.8498 15.7058 36.1219 15.3499 36.2715 14.9383C36.3729 14.6932 36.4161 14.4278 36.3975 14.1631C36.3789 13.8984 36.2991 13.6417 36.1644 13.4131Z" fill="white"/>
</g>
<g opacity="0.5">
<path opacity="0.5" d="M83.5708 48.0008C83.0266 46.6246 82.7688 45.152 82.813 43.6728C82.8572 42.1936 83.2025 40.739 83.8278 39.3978L78.1939 41.6214C77.7264 41.8074 77.3517 42.1711 77.1518 42.6328C76.9518 43.0945 76.9429 43.6166 77.1271 44.0849L81.5443 55.2628C81.6355 55.4945 81.7715 55.7059 81.9445 55.8849C82.1176 56.064 82.3242 56.2071 82.5526 56.3062C82.781 56.4053 83.0268 56.4584 83.2757 56.4624C83.5247 56.4664 83.772 56.4213 84.0035 56.3296L89.6374 54.106C88.2637 53.5552 87.017 52.7296 85.9738 51.6797C84.9306 50.6299 84.1128 49.378 83.5708 48.0008Z" fill="#FFB985"/>
<path opacity="0.5" d="M103.437 31.6517L97.8035 33.8752C99.1766 34.4273 100.423 35.2532 101.467 36.3024C102.51 37.3517 103.33 38.6025 103.874 39.9786C104.419 41.3547 104.678 42.8272 104.635 44.3066C104.593 45.786 104.249 47.2411 103.626 48.5835L109.256 46.3599C109.487 46.2682 109.699 46.1318 109.878 45.9584C110.057 45.7849 110.2 45.5779 110.299 45.3491C110.398 45.1204 110.451 44.8743 110.455 44.6251C110.459 44.3758 110.414 44.1282 110.322 43.8964L105.909 32.7185C105.817 32.486 105.68 32.2739 105.506 32.0944C105.332 31.9149 105.124 31.7716 104.895 31.6725C104.665 31.5734 104.418 31.5206 104.168 31.517C103.918 31.5134 103.67 31.5592 103.437 31.6517V31.6517Z" fill="#FFB985"/>
<path opacity="0.5" d="M103.87 39.9847C103.328 38.6074 102.51 37.3552 101.467 36.3047C100.423 35.2542 99.1771 34.4276 97.8036 33.8752L83.828 39.3977C83.2032 40.7391 82.8581 42.1937 82.8139 43.6728C82.7697 45.1519 83.0273 46.6245 83.5709 48.0008C84.1146 49.3771 84.9328 50.6282 85.9759 51.6778C87.0189 52.7275 88.2648 53.5537 89.6376 54.106L103.626 48.5834C104.249 47.2421 104.592 45.7877 104.634 44.3092C104.676 42.8308 104.416 41.3593 103.87 39.9847V39.9847Z" fill="#FF7E1D"/>
<path opacity="0.5" d="M95.7771 43.2837C95.1376 43.1204 94.4694 43.1058 93.8234 43.2408C93.4811 43.3127 93.1293 43.3271 92.7823 43.2837C92.6579 43.2722 92.5393 43.226 92.44 43.1502C92.3407 43.0744 92.2648 42.9722 92.221 42.8552C92.177 42.7497 92.1613 42.6344 92.1756 42.5209C92.1899 42.4074 92.2336 42.2996 92.3024 42.2083C92.4794 41.9755 92.7207 41.7998 92.9965 41.7027C93.3009 41.5844 93.6303 41.5451 93.9539 41.5885C94.2776 41.632 94.585 41.7568 94.8474 41.9512L95.3958 40.7259C95.022 40.4443 94.5766 40.2736 94.1104 40.2332C93.823 40.2124 93.5341 40.2356 93.2536 40.3017L92.7095 38.9265L91.4456 39.4277L91.9811 40.7944C91.7694 40.9217 91.575 41.0758 91.4027 41.2529C91.1117 41.5426 90.9006 41.9027 90.7901 42.2983C90.6838 42.684 90.7094 43.0941 90.8629 43.4636C90.9504 43.7178 91.0902 43.9509 91.2732 44.1479C91.4562 44.3449 91.6783 44.5015 91.9254 44.6075C92.5385 44.814 93.1965 44.8481 93.8277 44.7061C94.2098 44.6294 94.6014 44.612 94.9887 44.6547C95.1287 44.6631 95.2633 44.7111 95.377 44.793C95.4908 44.8749 95.579 44.9874 95.6314 45.1174C95.673 45.2235 95.685 45.3389 95.6661 45.4514C95.6473 45.5638 95.5982 45.669 95.5243 45.7557C95.3453 45.9826 95.1063 46.1548 94.8345 46.2527C94.4833 46.3963 94.1025 46.4522 93.7249 46.4155C93.2618 46.3455 92.8216 46.1679 92.4395 45.8971L91.9597 47.2296C92.4181 47.5271 92.9411 47.7108 93.4849 47.7651C93.8888 47.7976 94.2952 47.757 94.6846 47.6452L95.1687 48.8705L96.454 48.3692L95.9527 47.0839C96.1369 46.959 96.3078 46.8154 96.4626 46.6555C96.7729 46.3563 96.984 45.9692 97.0675 45.5463C97.151 45.1234 97.1029 44.6851 96.9296 44.2905C96.8312 44.0432 96.6754 43.8229 96.475 43.6478C96.2746 43.4727 96.0353 43.3479 95.7771 43.2837Z" fill="white"/>
</g>
<path d="M35.5816 25.2423C34.8706 23.5432 34.5141 21.7167 34.534 19.8749C34.5539 18.0331 34.9497 16.2148 35.6973 14.5314L28.7523 17.4447C28.4652 17.5626 28.2041 17.736 27.9841 17.9549C27.764 18.1739 27.5893 18.434 27.4699 18.7206C27.3505 19.0071 27.2888 19.3143 27.2883 19.6247C27.2878 19.9351 27.3486 20.2426 27.467 20.5295L33.2167 34.3123C33.3341 34.5993 33.5071 34.8603 33.7256 35.0803C33.9441 35.3003 34.2039 35.475 34.4901 35.5944C34.7763 35.7138 35.0832 35.7756 35.3933 35.7761C35.7034 35.7767 36.0105 35.716 36.2971 35.5976L43.2421 32.7014C41.5252 32.0441 39.9604 31.0437 38.6433 29.7612C37.3261 28.4787 36.2844 26.9411 35.5816 25.2423V25.2423Z" fill="#FFB985"/>
<path d="M59.874 4.46738L52.9333 7.36362C54.6503 8.0188 56.216 9.01647 57.5352 10.2959C58.8544 11.5753 59.8995 13.1098 60.6068 14.8059C61.3142 16.502 61.6691 18.3244 61.6499 20.162C61.6308 21.9996 61.2379 23.8141 60.4953 25.4951L67.4402 22.6031C67.7274 22.4852 67.9884 22.3119 68.2085 22.0929C68.4286 21.874 68.6033 21.6138 68.7227 21.3273C68.842 21.0408 68.9037 20.7335 68.9042 20.4231C68.9047 20.1127 68.844 19.8053 68.7255 19.5184L62.9588 5.73556C62.8397 5.44957 62.6654 5.18987 62.4459 4.97131C62.2264 4.75275 61.9659 4.57963 61.6794 4.46184C61.3929 4.34405 61.0859 4.28391 60.7762 4.28486C60.4664 4.28581 60.1598 4.34784 59.874 4.46738V4.46738Z" fill="#FFB985"/>
<path d="M60.6069 14.8141C59.9016 13.1168 58.8573 11.5813 57.5379 10.3016C56.2185 9.02198 54.6517 8.02515 52.9336 7.37219L35.6976 14.5485C34.9536 16.2296 34.5597 18.0446 34.5399 19.8829C34.52 21.7212 34.8746 23.5442 35.5821 25.241C36.2896 26.9378 37.3352 28.4728 38.6551 29.7525C39.975 31.0321 41.5416 32.0296 43.2595 32.6843L60.4955 25.4951C61.2399 23.816 61.6337 22.0027 61.6529 20.1661C61.672 18.3295 61.3161 16.5084 60.6069 14.8141Z" fill="#FF7E1D"/>
<path d="M50.6328 19.0985C49.8335 18.9147 49.0029 18.9147 48.2036 19.0985C47.7824 19.1953 47.3483 19.2228 46.9183 19.1799C46.773 19.1635 46.6344 19.1101 46.5156 19.025C46.3968 18.9399 46.3017 18.8257 46.2395 18.6935C46.1772 18.5612 46.1498 18.4153 46.1599 18.2694C46.17 18.1236 46.2172 17.9828 46.297 17.8603C46.5128 17.567 46.8111 17.3448 47.1539 17.222C47.5281 17.0667 47.9356 17.0092 48.3381 17.0549C48.7406 17.1006 49.1248 17.2481 49.4546 17.4833L50.1058 15.9495C49.6386 15.6125 49.0867 15.4122 48.5121 15.3711C48.1464 15.3506 47.7798 15.3838 47.4238 15.4697L46.7212 13.7559L45.1574 14.4071L45.8515 16.0995C45.5917 16.2642 45.3528 16.4598 45.1403 16.6821C44.7866 17.0507 44.533 17.5034 44.4033 17.9974C44.2756 18.4764 44.3102 18.9842 44.5019 19.4413C44.6171 19.7553 44.7966 20.0418 45.029 20.2823C45.2614 20.5228 45.5416 20.7121 45.8515 20.838C46.6167 21.0852 47.4359 21.1134 48.2164 20.9194C48.6884 20.8128 49.1744 20.7824 49.656 20.8294C49.8302 20.8348 49.9991 20.8902 50.1427 20.9889C50.2863 21.0877 50.3984 21.2257 50.4657 21.3864C50.5208 21.5172 50.5391 21.6605 50.5187 21.8009C50.4983 21.9413 50.44 22.0735 50.35 22.1833C50.1298 22.4701 49.8326 22.6885 49.4932 22.8131C49.0603 23.0009 48.5886 23.0817 48.1179 23.0487C47.5438 22.9677 46.9957 22.7567 46.5155 22.4318L45.9457 24.0984C46.4446 24.4174 47.0072 24.6234 47.5942 24.7019C48.1811 24.7803 48.7781 24.7294 49.3432 24.5525L49.973 26.0606L51.5368 25.4094L50.9284 23.8499C51.154 23.6989 51.3623 23.5236 51.5497 23.3272C51.9161 22.9514 52.1673 22.4787 52.2737 21.9648C52.3695 21.4286 52.3008 20.876 52.0766 20.3796C51.9557 20.0663 51.7615 19.7865 51.5103 19.5637C51.2591 19.3408 50.9583 19.1813 50.6328 19.0985V19.0985Z" fill="white"/>
<path d="M61.6394 41.4843L63.1046 38.4853C63.5249 37.6171 63.5832 36.6176 63.2666 35.7065C62.9501 34.7954 62.2846 34.0473 61.4166 33.6268V33.6268C60.9852 33.4195 60.5171 33.2995 60.0392 33.2735C59.5613 33.2475 59.083 33.3161 58.6316 33.4753C58.1803 33.6345 57.7648 33.8812 57.409 34.2013C57.0532 34.5213 56.764 34.9085 56.5581 35.3405L55.0971 38.3396C54.6766 39.2076 53.9285 39.8731 53.0174 40.1896C52.1063 40.5062 51.1068 40.4479 50.2386 40.0276L46.2113 38.074C45.343 37.6548 44.3439 37.5972 43.4331 37.9136C42.5224 38.2301 41.7743 38.8948 41.3529 39.762L25.7663 67.6832C25.346 68.5514 25.2878 69.5509 25.6043 70.462C25.9209 71.3731 26.5863 72.1212 27.4544 72.5417L48.602 82.7814C49.4703 83.2005 50.4694 83.2581 51.3802 82.9417C52.291 82.6253 53.0391 81.9605 53.4605 81.0933L69.0642 53.1507C69.4833 52.2823 69.5409 51.2832 69.2245 50.3725C68.9081 49.4617 68.2434 48.7136 67.3761 48.2922L63.3531 46.3428C62.9211 46.1369 62.5339 45.8477 62.2138 45.4919C61.8938 45.1361 61.6471 44.7206 61.4879 44.2692C61.3287 43.8179 61.2601 43.3396 61.2861 42.8617C61.3121 42.3838 61.4321 41.9157 61.6394 41.4843V41.4843Z" fill="#C2EAFF"/>
<path d="M38.7008 77.9529C37.8164 78.3431 36.8168 78.3833 35.9039 78.0652C34.9911 77.7471 34.2329 77.0945 33.7824 76.2392L20.5865 55.3015C20.3877 54.922 20.269 54.5057 20.238 54.0784C20.2069 53.6511 20.2641 53.222 20.4059 52.8177C20.5478 52.4134 20.7713 52.0427 21.0625 51.7285C21.3538 51.4143 21.7065 51.1634 22.0989 50.9914L27.0045 48.8492C27.397 48.674 27.8213 48.5815 28.2511 48.5776C28.6809 48.5737 29.1069 48.6584 29.5025 48.8264C29.8981 48.9945 30.2548 49.2422 30.5503 49.5543C30.8459 49.8663 31.074 50.2359 31.2203 50.6401L40.7916 73.163C41.1166 74.0776 41.0813 75.0816 40.693 75.9712C40.3047 76.8608 39.5925 77.5693 38.7008 77.9529Z" fill="#FF7E1D"/>
<path d="M42.6894 44.0806C39.1261 44.0806 35.7086 45.4962 33.1889 48.0159C30.6692 50.5356 29.2537 53.953 29.2537 57.5164C29.2537 64.9369 35.2518 66.6678 42.6894 66.6678C50.1271 66.6678 56.1252 64.9541 56.1252 57.5164C56.1252 53.953 54.7097 50.5356 52.19 48.0159C49.6703 45.4962 46.2528 44.0806 42.6894 44.0806V44.0806ZM42.6894 66.0252C41.0066 66.0252 39.3615 65.5261 37.9622 64.5912C36.563 63.6562 35.4724 62.3274 34.8284 60.7726C34.1844 59.2178 34.0159 57.507 34.3442 55.8564C34.6725 54.2059 35.4829 52.6898 36.6728 51.4998C37.8628 50.3098 39.3789 49.4995 41.0295 49.1711C42.68 48.8428 44.3908 49.0113 45.9456 49.6553C47.5004 50.2994 48.8293 51.3899 49.7642 52.7892C50.6992 54.1885 51.1982 55.8335 51.1982 57.5164C51.1982 59.7731 50.3018 61.9373 48.7061 63.533C47.1104 65.1287 44.9461 66.0252 42.6894 66.0252Z" fill="#00A0F3"/>
<path d="M64.9254 57.5164H20.4536C18.104 57.5164 16.1992 59.4212 16.1992 61.7708V105.604C16.1992 107.954 18.104 109.859 20.4536 109.859H64.9254C67.275 109.859 69.1798 107.954 69.1798 105.604V61.7708C69.1798 59.4212 67.275 57.5164 64.9254 57.5164Z" fill="#5CC7FF"/>
<path d="M59.7584 38.3524C60.5487 38.3524 61.1893 37.7118 61.1893 36.9215C61.1893 36.1311 60.5487 35.4905 59.7584 35.4905C58.9681 35.4905 58.3274 36.1311 58.3274 36.9215C58.3274 37.7118 58.9681 38.3524 59.7584 38.3524Z" fill="#FFFAE6"/>
<path d="M16.1992 94.6877H59.6256V109.859H20.4536C19.3253 109.859 18.2431 109.41 17.4453 108.613C16.6474 107.815 16.1992 106.733 16.1992 105.604V94.6877V94.6877Z" fill="#00A0F3"/>
<path d="M30.5904 78.7926C31.1784 77.0508 32.1159 75.4475 33.3455 74.0809C34.5751 72.7143 36.0708 71.6132 37.741 70.8451L30.6161 68.4287C30.3222 68.3284 30.0113 68.287 29.7013 68.307C29.3914 68.327 29.0884 68.408 28.8098 68.5453C28.5312 68.6826 28.2824 68.8736 28.0777 69.1072C27.8731 69.3409 27.7165 69.6126 27.617 69.9068L22.8228 84.0453C22.7219 84.3392 22.6801 84.6502 22.6998 84.9603C22.7196 85.2704 22.8005 85.5736 22.9378 85.8524C23.0752 86.1311 23.2664 86.3799 23.5003 86.5845C23.7343 86.7891 24.0064 86.9453 24.3009 87.0443L31.4259 89.4607C30.5678 87.833 30.0512 86.0472 29.9075 84.2129C29.7639 82.3785 29.9962 80.5341 30.5904 78.7926V78.7926Z" fill="#FFB985"/>
<path d="M62.5519 79.2511L55.427 76.8347C56.2836 78.4614 56.8002 80.2453 56.9452 82.078C57.0903 83.9107 56.8609 85.7537 56.2709 87.4949C55.6809 89.236 54.7426 90.8389 53.5133 92.2058C52.284 93.5728 50.7894 94.6752 49.1204 95.446L56.2453 97.8581C56.5389 97.9592 56.8496 98.0012 57.1596 97.9817C57.4695 97.9623 57.7725 97.8817 58.0512 97.7448C58.3299 97.6078 58.5788 97.4171 58.7836 97.1836C58.9883 96.9502 59.1449 96.6785 59.2443 96.3843L64.0385 82.2459C64.1386 81.9517 64.1795 81.6406 64.1589 81.3305C64.1383 81.0204 64.0565 80.7175 63.9184 80.4391C63.7802 80.1608 63.5883 79.9125 63.3538 79.7086C63.1193 79.5047 62.8467 79.3492 62.5519 79.2511V79.2511Z" fill="#FFB985"/>
<path d="M56.2711 87.4942C56.8608 85.7526 57.089 83.9089 56.9417 82.0761C56.7943 80.2432 56.2746 78.4597 55.4143 76.8347L37.7284 70.8365C36.0595 71.608 34.5652 72.7112 33.3365 74.079C32.1078 75.4467 31.1704 77.0503 30.5816 78.792C29.9927 80.5337 29.7647 82.3771 29.9113 84.2098C30.058 86.0426 30.5763 87.8262 31.4346 89.4521L49.1205 95.4503C50.7909 94.6802 52.2866 93.5774 53.5161 92.2094C54.7456 90.8414 55.6831 89.237 56.2711 87.4942Z" fill="#FF7E1D"/>
<path d="M45.9499 84.1224C45.4747 83.4543 44.8534 82.9034 44.1333 82.5114C43.7504 82.306 43.4043 82.0381 43.1094 81.7188C43.0124 81.6089 42.9452 81.476 42.9143 81.3328C42.8833 81.1895 42.8896 81.0407 42.9326 80.9006C42.9756 80.7604 43.0538 80.6337 43.1598 80.5324C43.2657 80.4311 43.3959 80.3587 43.5378 80.3221C43.8906 80.2412 44.2598 80.2696 44.596 80.4035C44.9802 80.5332 45.3249 80.7586 45.5978 81.0584C45.8706 81.3583 46.0626 81.7227 46.1556 82.1173L47.6551 81.3932C47.5277 80.8315 47.2457 80.3165 46.8411 79.9065C46.5812 79.6488 46.2836 79.4321 45.9585 79.2639L46.5454 77.5287L44.9302 76.9889L44.3476 78.7026C44.043 78.6543 43.7335 78.6442 43.4264 78.6727C42.9192 78.7153 42.4312 78.8863 42.0083 79.1696C41.6027 79.4518 41.3015 79.8599 41.1514 80.3307C41.0308 80.6427 40.9765 80.9764 40.9919 81.3106C41.0074 81.6448 41.0924 81.972 41.2414 82.2715C41.6521 82.9603 42.2452 83.5222 42.9551 83.8953C43.3795 84.129 43.7654 84.4266 44.0991 84.7779C44.2242 84.8989 44.3127 85.0527 44.3544 85.2217C44.3961 85.3907 44.3893 85.568 44.3347 85.7333C44.2884 85.8675 44.2066 85.9865 44.0979 86.0778C43.9893 86.1691 43.8579 86.2292 43.7178 86.2517C43.3685 86.323 43.0063 86.2948 42.6724 86.1703C42.2225 86.0253 41.815 85.7723 41.4856 85.4334C41.1052 84.9953 40.8323 84.4745 40.6887 83.9124L39.1592 84.7907C39.3595 85.4342 39.7089 86.0214 40.1789 86.5045C40.5342 86.8633 40.9524 87.1537 41.4128 87.3614L40.8729 88.9337L42.4753 89.4778L43.0194 87.8755C43.2885 87.9053 43.56 87.9053 43.8291 87.8755C44.364 87.8436 44.8761 87.6475 45.2955 87.314C45.7149 86.9805 46.0212 86.5257 46.1727 86.0118C46.2876 85.7017 46.3274 85.3687 46.2887 85.0403C46.2499 84.7118 46.1338 84.3972 45.9499 84.1224Z" fill="white"/>
<path d="M110.284 91.3502H54.5231C53.0324 91.3502 51.824 92.5586 51.824 94.0493V107.164C51.824 108.654 53.0324 109.863 54.5231 109.863H110.284C111.775 109.863 112.983 108.654 112.983 107.164V94.0493C112.983 92.5586 111.775 91.3502 110.284 91.3502Z" fill="#8FD9FF"/>
<path d="M112.983 88.6981H51.9738C50.7812 88.6981 49.8145 89.6649 49.8145 90.8574V97.4425C49.8145 98.6351 50.7812 99.6018 51.9738 99.6018H112.983C114.176 99.6018 115.143 98.6351 115.143 97.4425V90.8574C115.143 89.6649 114.176 88.6981 112.983 88.6981Z" fill="#C2EAFF"/>
<path d="M108.232 88.6981H74.9421C74.4043 88.6976 73.8805 88.5258 73.4468 88.2077C73.0132 87.8895 72.692 87.4415 72.53 86.9286L71.5146 83.6854H109.83V87.1129C109.826 87.5345 109.657 87.9376 109.357 88.2346C109.058 88.5315 108.653 88.6981 108.232 88.6981V88.6981Z" fill="#0080C2"/>
<path d="M109.761 70.798C109.614 70.4802 109.379 70.2113 109.083 70.023C108.788 69.8347 108.445 69.7349 108.095 69.7355H108.018C107.684 69.7369 107.358 69.828 107.072 69.9991C106.787 70.1702 106.552 70.4151 106.394 70.708C105.601 72.1433 103.703 74.6497 100.104 74.6497C99.0078 74.6832 97.9242 74.4052 96.9793 73.8478C96.0344 73.2905 95.267 72.4766 94.766 71.5006C94.5091 71.035 94.1017 70.6704 93.6106 70.4665C93.1195 70.2626 92.5737 70.2314 92.0625 70.3781C91.1371 70.6395 89.8089 70.9908 87.9324 71.4492L89.1234 73.5186C89.4228 74.0373 89.5039 74.6537 89.3489 75.2322C89.1938 75.8107 88.8153 76.3039 88.2966 76.6033C87.7778 76.9027 87.1614 76.9838 86.5829 76.8288C86.0044 76.6737 85.5112 76.2952 85.2118 75.7764L83.3352 72.5289L81.7629 72.8802C81.3002 72.983 80.8632 73.0944 80.4347 73.2058L81.5915 75.2109C81.74 75.4677 81.8365 75.7513 81.8755 76.0455C81.9144 76.3396 81.895 76.6385 81.8185 76.9252C81.7419 77.2118 81.6096 77.4806 81.4291 77.7161C81.2487 77.9516 81.0236 78.1493 80.7668 78.2978C80.5099 78.4463 80.2263 78.5428 79.9322 78.5818C79.6381 78.6207 79.3392 78.6013 79.0525 78.5247C78.7659 78.4482 78.4971 78.3159 78.2616 78.1354C78.0261 77.955 77.8284 77.7299 77.6799 77.473L76.1246 74.7953C70.9063 77.4088 70.6321 81.0933 71.5147 83.7025H109.83C112.657 78.3256 110.794 73.0044 109.761 70.798Z" fill="#005E8F"/>
<path d="M80.7647 78.2999C81.2838 77.9997 81.6625 77.5057 81.8175 76.9265C81.9726 76.3473 81.8913 75.7302 81.5916 75.2108L80.4348 73.2057C78.9476 73.587 77.5034 74.1196 76.1248 74.7953L77.68 77.4901C77.983 78.0051 78.4774 78.3794 79.0554 78.5311C79.6333 78.6828 80.2478 78.5997 80.7647 78.2999V78.2999Z" fill="#5CC7FF"/>
<path d="M88.2965 76.6033C88.5534 76.4551 88.7786 76.2577 88.9591 76.0225C89.1397 75.7872 89.2722 75.5187 89.349 75.2322C89.4258 74.9458 89.4454 74.647 89.4067 74.353C89.3679 74.0589 89.2717 73.7754 89.1234 73.5186L87.9323 71.4492C86.647 71.7577 85.1475 72.1176 83.3352 72.5289L85.2118 75.7764C85.36 76.0333 85.5573 76.2585 85.7926 76.4391C86.0279 76.6196 86.2964 76.7521 86.5828 76.8289C86.8693 76.9057 87.1681 76.9253 87.4621 76.8866C87.7562 76.8479 88.0397 76.7516 88.2965 76.6033V76.6033Z" fill="#5CC7FF"/>
<path d="M104.307 80.8877H96.2869C95.4634 80.8877 94.7959 81.5552 94.7959 82.3787V92.6611C94.7959 93.4846 95.4634 94.1521 96.2869 94.1521H104.307C105.131 94.1521 105.798 93.4846 105.798 92.6611V82.3787C105.798 81.5552 105.131 80.8877 104.307 80.8877Z" fill="white"/>
<path d="M100.349 84.0796C100.864 84.0796 101.283 83.6614 101.283 83.1456C101.283 82.6298 100.864 82.2116 100.349 82.2116C99.8327 82.2116 99.4146 82.6298 99.4146 83.1456C99.4146 83.6614 99.8327 84.0796 100.349 84.0796Z" fill="#005E8F"/>
<path d="M100.781 74.6154C100.781 74.3741 100.587 74.1784 100.346 74.1784C100.106 74.1784 99.9116 74.3741 99.9116 74.6154V82.2416C99.9116 82.4829 100.106 82.6786 100.346 82.6786C100.587 82.6786 100.781 82.4829 100.781 82.2416V74.6154Z" fill="#5CC7FF"/>
<path d="M93.2151 18.7001H93.1851C93.4165 15.9624 91.5785 13.0661 88.9907 11.9179C86.403 10.7697 83.0183 11.3438 81.146 13.3575C81.1089 13.3335 81.0703 13.3121 81.0303 13.2932C80.5893 13.1147 80.0961 13.1147 79.655 13.2931C79.2139 13.4715 78.8594 13.8143 78.6664 14.2493C78.4734 14.6842 78.457 15.1771 78.6207 15.6239C78.7844 16.0706 79.1154 16.4363 79.5437 16.6436C79.6165 16.6736 79.6893 16.6907 79.7579 16.7121C79.6636 19.3684 81.4716 22.119 83.9694 23.2287C86.4672 24.3383 89.7105 23.8328 91.617 21.9862C91.6556 22.0076 91.6899 22.0333 91.7284 22.0505C91.9498 22.1576 92.1904 22.2191 92.436 22.2313C92.6816 22.2436 92.9272 22.2063 93.1581 22.1217C93.389 22.0371 93.6005 21.9069 93.7801 21.7389C93.9597 21.5708 94.1036 21.3684 94.2034 21.1436C94.3031 20.9189 94.3566 20.6763 94.3607 20.4304C94.3648 20.1845 94.3194 19.9404 94.2272 19.7124C94.135 19.4844 93.9979 19.2773 93.824 19.1034C93.6501 18.9295 93.4431 18.7923 93.2151 18.7001V18.7001Z" fill="#FFCE00"/>
</svg>
